<?xml version="1.0" standalone="no"?>
<!DOCTYPE svg PUBLIC "-//W3C//DTD SVG 20010904//EN"
 "http://www.w3.org/TR/2001/REC-SVG-20010904/DTD/svg10.dtd">
<svg version="1.0" xmlns="http://www.w3.org/2000/svg"
 width="274.000000pt" height="249.000000pt" viewBox="0 0 274.000000 249.000000"
 preserveAspectRatio="xMidYMid meet">
<g transform="translate(0.000000,249.000000) scale(0.100000,-0.100000)"
fill="#ffffff" stroke="none">
<path d="M1554 2463 c-25 -116 -58 -157 -429 -533 -172 -175 -328 -342 -350
-375 -65 -98 -88 -174 -89 -285 0 -114 17 -163 27 -77 8 68 36 134 84 201 20
28 170 186 333 351 327 332 353 361 401 455 30 59 33 75 37 178 4 108 -1 142
-14 85z"/>
<path d="M1555 2178 c-33 -125 -65 -165 -413 -520 -337 -344 -379 -397 -412
-518 -27 -98 -5 -244 42 -286 20 -19 21 -19 12 6 -5 14 -9 57 -8 95 1 135 47
198 424 580 264 267 290 296 325 368 36 73 39 85 43 188 4 105 0 134 -13 87z"/>
<path d="M1557 1893 c-3 -10 -8 -31 -12 -47 -16 -75 -76 -144 -472 -547 -166
-168 -197 -205 -225 -265 -29 -61 -33 -79 -33 -154 0 -75 3 -91 28 -132 27
-47 69 -78 103 -78 13 0 11 4 -8 20 -59 46 -62 137 -8 247 29 58 70 105 295
333 238 242 265 273 300 344 36 72 39 84 43 187 4 101 0 134 -11 92z"/>
<path d="M1777 1665 c34 -34 35 -37 31 -103 -6 -105 -39 -161 -187 -317 -136
-143 -194 -228 -211 -310 -13 -62 -10 -238 3 -190 30 110 74 171 271 375 181
187 201 223 201 365 0 88 -3 105 -24 139 -25 39 -74 76 -102 76 -12 0 -7 -10
18 -35z"/>
<path d="M1927 1484 c15 -72 5 -134 -33 -212 -29 -59 -63 -101 -181 -225 -190
-198 -240 -258 -277 -337 -28 -59 -31 -75 -33 -180 l-3 -115 23 67 c33 96 78
156 266 351 240 249 296 342 296 492 0 83 -22 162 -51 186 -14 11 -15 8 -7
-27z"/>
<path d="M1996 1185 c-26 -142 -71 -209 -300 -444 -154 -159 -256 -283 -256
-313 0 -4 29 -8 64 -8 l63 0 159 163 c230 234 283 323 291 487 3 47 1 101 -5
120 l-9 35 -7 -40z"/>
<path d="M965 573 c-16 -2 -104 -17 -195 -33 -91 -17 -205 -37 -255 -46 -49
-8 -112 -20 -140 -25 l-50 -10 -155 -216 c-85 -119 -158 -221 -162 -228 -8
-13 21 -8 572 90 268 48 324 57 398 60 147 6 234 -27 290 -109 l33 -49 -3 154
-3 154 -75 0 -75 0 -3 53 -3 52 80 0 c80 0 81 0 81 25 0 14 -7 41 -15 61 -22
54 -77 74 -195 72 -52 0 -108 -3 -125 -5z"/>
<path d="M1654 418 c-183 -187 -232 -260 -249 -368 l-7 -45 31 48 c33 51 74
81 136 98 65 19 219 12 370 -14 77 -14 210 -37 295 -52 354 -61 436 -76 453
-79 9 -2 17 -1 17 2 0 4 -35 55 -78 113 -42 58 -115 158 -162 223 -48 66 -94
119 -105 121 -11 3 -99 18 -195 35 -96 16 -213 36 -260 45 -47 8 -90 15 -96
15 -6 0 -74 -64 -150 -142z"/>
</g>
</svg>
